0
SECTION
2
HEADER
9
$INSUNITS
70
4
9
$ACADVER
1
AC1014
9
$HANDSEED
5
FFFF
0
ENDSEC
0
SECTION
2
TABLES
0
TABLE
2
VPORT
5
8
100
AcDbSymbolTable
0
ENDTAB
0
TABLE
2
LTYPE
5
5
100
AcDbSymbolTable
0
LTYPE
5
14
100
AcDbSymbolTableRecord
100
AcDbLinetypeTableRecord
2
BYBLOCK
70
0
0
LTYPE
5
15
100
AcDbSymbolTableRecord
100
AcDbLinetypeTableRecord
2
BYLAYER
70
0
0
ENDTAB
0
TABLE
2
LAYER
5
2
100
AcDbSymbolTable
70
2
0
LAYER
5
50
100
AcDbSymbolTableRecord
100
AcDbLayerTableRecord
2
0
70
0
6
CONTINUOUS
0
ENDTAB
0
TABLE
2
STYLE
5
3
100
AcDbSymbolTable
70
1
0
STYLE
5
11
100
AcDbSymbolTableRecord
100
AcDbTextStyleTableRecord
2
STANDARD
70
0
0
ENDTAB
0
TABLE
2
VIEW
5
6
100
AcDbSymbolTable
70
0
0
ENDTAB
0
TABLE
2
UCS
5
7
100
AcDbSymbolTable
70
0
0
ENDTAB
0
TABLE
2
APPID
5
9
100
AcDbSymbolTable
70
2
0
APPID
5
12
100
AcDbSymbolTableRecord
100
AcDbRegAppTableRecord
2
ACAD
70
0
0
ENDTAB
0
TABLE
2
DIMSTYLE
5
A
100
AcDbSymbolTable
70
1
0
ENDTAB
0
TABLE
2
BLOCK_RECORD
5
1
100
AcDbSymbolTable
70
1
0
BLOCK_RECORD
5
1F
100
AcDbSymbolTableRecord
100
AcDbBlockTableRecord
2
*MODEL_SPACE
0
BLOCK_RECORD
5
1B
100
AcDbSymbolTableRecord
100
AcDbBlockTableRecord
2
*PAPER_SPACE
0
ENDTAB
0
ENDSEC
0
SECTION
2
BLOCKS
0
BLOCK
5
20
100
AcDbEntity
100
AcDbBlockBegin
2
*MODEL_SPACE
0
ENDBLK
5
21
100
AcDbEntity
100
AcDbBlockEnd
0
BLOCK
5
1C
100
AcDbEntity
100
AcDbBlockBegin
2
*PAPER_SPACE
0
ENDBLK
5
1D
100
AcDbEntity
100
AcDbBlockEnd
0
ENDSEC
0
SECTION
2
ENTITIES
0
LINE
5
100
100
AcDbEntity
8
0
100
AcDbLine
10
-4.9999999999999991
20
0
30
0
11
-130
21
0
31
0
0
LINE
5
101
100
AcDbEntity
8
0
100
AcDbLine
10
-135
20
4.9999999999999982
30
0
11
-135
21
72
31
0
0
LINE
5
102
100
AcDbEntity
8
0
100
AcDbLine
10
-130
20
77
30
0
11
-92.500000000000028
21
77
31
0
0
LINE
5
103
100
AcDbEntity
8
0
100
AcDbLine
10
0
20
75
30
0
11
-5.5511151231257827e-16
21
5
31
0
0
LINE
5
104
100
AcDbEntity
8
0
100
AcDbLine
10
-77.500000000000014
20
92.000000000000014
30
0
11
-77.5
21
127.99999999999999
31
0
0
LINE
5
105
100
AcDbEntity
8
0
100
AcDbLine
10
-57.5
20
91.999999999999972
30
0
11
-57.5
21
127.99999999999999
31
0
0
LINE
5
106
100
AcDbEntity
8
0
100
AcDbLine
10
-48.5
20
137
30
0
11
-34.5
21
137
31
0
0
LINE
5
107
100
AcDbEntity
8
0
100
AcDbLine
10
-32.500000000000007
20
139
30
0
11
-32.5
21
155.07330415625012
31
0
0
LINE
5
108
100
AcDbEntity
8
0
100
AcDbLine
10
-34.5
20
157.07330415625012
30
0
11
-67.5
21
157.07330415625012
31
0
0
LINE
5
109
100
AcDbEntity
8
0
100
AcDbLine
10
-100.5
20
157.07330415625012
30
0
11
-67.5
21
157.07330415625012
31
0
0
LINE
5
110
100
AcDbEntity
8
0
100
AcDbLine
10
-102.5
20
139
30
0
11
-102.5
21
155.07330415625012
31
0
0
LINE
5
111
100
AcDbEntity
8
0
100
AcDbLine
10
-86.5
20
137
30
0
11
-100.5
21
137
31
0
0
CIRCLE
5
112
100
AcDbEntity
8
0
100
AcDbCircle
10
-48.5
20
141.31532264719198
30
0
40
1.6000000000000063
210
0
220
0
230
1
0
CIRCLE
5
113
100
AcDbEntity
8
0
100
AcDbCircle
10
-86.5
20
141.31532264719198
30
0
40
1.5999999999999948
210
0
220
0
230
1
0
CIRCLE
5
114
100
AcDbEntity
8
0
100
AcDbCircle
10
-10
20
40.036283773167497
30
0
40
1.6000000000000003
210
0
220
0
230
1
0
CIRCLE
5
115
100
AcDbEntity
8
0
100
AcDbCircle
10
-30
20
40.036283773167497
30
0
40
1.5999999999999992
210
0
220
0
230
1
0
LINE
5
116
100
AcDbEntity
8
0
100
AcDbLine
10
-11.000000163912773
20
25
30
0
11
0
21
25
31
0
0
LWPOLYLINE
5
117
100
AcDbEntity
8
0
100
AcDbPolyline
90
4
70
1
43
0.0
10
-11.000000163912773
20
25
10
0
20
25
10
0
20
17.00000025331974
10
-11.000000163912773
20
17.00000025331974
0
LINE
5
118
100
AcDbEntity
8
0
100
AcDbLine
10
-11.000000163912773
20
32.99999974668026
30
0
11
-11.000000163912773
21
25
31
0
0
LINE
5
119
100
AcDbEntity
8
0
100
AcDbLine
10
0
20
32.99999974668026
30
0
11
-11.000000163912773
21
32.99999974668026
31
0
0
LINE
5
120
100
AcDbEntity
8
0
100
AcDbLine
10
-135
20
32.99999974668026
30
0
11
-123.99999983608723
21
32.99999974668026
31
0
0
LINE
5
121
100
AcDbEntity
8
0
100
AcDbLine
10
-123.99999983608723
20
32.99999974668026
30
0
11
-123.99999983608723
21
25
31
0
0
LINE
5
122
100
AcDbEntity
8
0
100
AcDbLine
10
-123.99999983608723
20
17.00000025331974
30
0
11
-123.99999983608723
21
25
31
0
0
LINE
5
123
100
AcDbEntity
8
0
100
AcDbLine
10
-135
20
17.00000025331974
30
0
11
-123.99999983608723
21
17.00000025331974
31
0
0
CIRCLE
5
124
100
AcDbEntity
8
0
100
AcDbCircle
10
-105
20
40.036283773167497
30
0
40
1.5999999999999992
210
0
220
0
230
1
0
CIRCLE
5
125
100
AcDbEntity
8
0
100
AcDbCircle
10
-125
20
40.036283773167497
30
0
40
1.6000000000000003
210
0
220
0
230
1
0
LINE
5
126
100
AcDbEntity
8
0
100
AcDbLine
10
-67.5
20
137
30
0
11
-67.5
21
135.00000201165676
31
0
0
CIRCLE
5
127
100
AcDbEntity
8
0
100
AcDbCircle
10
-67.5
20
135.00000201165676
30
0
40
1.6000000000000054
210
0
220
0
230
1
0
CIRCLE
5
128
100
AcDbEntity
8
0
100
AcDbCircle
10
-67.5
20
95.000002011656761
30
0
40
1.6000000000000014
210
0
220
0
230
1
0
LINE
5
129
100
AcDbEntity
8
0
100
AcDbLine
10
-123.99999983608723
20
25
30
0
11
-123.99999983608723
21
35
31
0
0
CIRCLE
5
130
100
AcDbEntity
8
0
100
AcDbCircle
10
-107
20
35.011366781745153
30
0
40
1.6000000000000019
210
0
220
0
230
1
0
CIRCLE
5
131
100
AcDbEntity
8
0
100
AcDbCircle
10
-97
20
35.011366781745153
30
0
40
1.599999999999993
210
0
220
0
230
1
0
CIRCLE
5
132
100
AcDbEntity
8
0
100
AcDbCircle
10
-107
20
14.988633218254845
30
0
40
1.6000000000000019
210
0
220
0
230
1
0
CIRCLE
5
133
100
AcDbEntity
8
0
100
AcDbCircle
10
-97
20
14.988633218254845
30
0
40
1.599999999999993
210
0
220
0
230
1
0
LINE
5
134
100
AcDbEntity
8
0
100
AcDbLine
10
-42.100000000000009
20
0.61277378364392288
30
0
11
-92.899999999999991
21
0.61277378364392288
31
0
0
CIRCLE
5
135
100
AcDbEntity
8
0
100
AcDbCircle
10
-90.359999999999999
20
16.012773783643922
30
0
40
1.5999999999999945
210
0
220
0
230
1
0
CIRCLE
5
136
100
AcDbEntity
8
0
100
AcDbCircle
10
-44.640000000000001
20
16.012773783643922
30
0
40
1.5999999999999945
210
0
220
0
230
1
0
CIRCLE
5
137
100
AcDbEntity
8
0
100
AcDbCircle
10
-75.11999999999999
20
66.652773783643923
30
0
40
1.6000000000000014
210
0
220
0
230
1
0
CIRCLE
5
138
100
AcDbEntity
8
0
100
AcDbCircle
10
-47.179999999999993
20
66.652773783643923
30
0
40
1.6000000000000023
210
0
220
0
230
1
0
LINE
5
139
100
AcDbEntity
8
0
100
AcDbLine
10
0.99999999999999645
20
0.03628377316749809
30
0
11
-41
21
0.03628377316749809
31
0
0
LINE
5
140
100
AcDbEntity
8
0
100
AcDbLine
10
0.99999999999999645
20
80.036283773167497
30
0
11
0.99999999999999645
21
0.03628377316749809
31
0
0
ARC
5
141
100
AcDbEntity
8
0
100
AcDbCircle
10
-48.5
20
127.99999999999999
30
0
40
9.0000000000000036
210
0
220
-0
230
1
100
AcDbArc
50
90
51
180
0
ARC
5
142
100
AcDbEntity
8
0
100
AcDbCircle
10
-86.5
20
127.99999999999999
30
0
40
9.0000000000000036
210
0
220
-0
230
1
100
AcDbArc
50
0
51
90
0
ARC
5
143
100
AcDbEntity
8
0
100
AcDbCircle
10
-34.5
20
139
30
0
40
1.9999999999999929
210
0
220
0
230
1
100
AcDbArc
50
-90
51
0
0
ARC
5
144
100
AcDbEntity
8
0
100
AcDbCircle
10
-34.5
20
155.07330415625012
30
0
40
1.9999999999999973
210
0
220
0
230
1
100
AcDbArc
50
0
51
90
0
ARC
5
145
100
AcDbEntity
8
0
100
AcDbCircle
10
-100.5
20
155.07330415625012
30
0
40
1.9999999999999929
210
0
220
-0
230
1
100
AcDbArc
50
90
51
180
0
ARC
5
146
100
AcDbEntity
8
0
100
AcDbCircle
10
-100.5
20
139
30
0
40
1.9999999999999929
210
0
220
0
230
1
100
AcDbArc
50
180
51
270
0
ARC
5
147
100
AcDbEntity
8
0
100
AcDbCircle
10
-92.500000000000071
20
92.000000000000057
30
0
40
15.000000000000062
210
0
220
0
230
1
100
AcDbArc
50
270.00000000000017
51
360
0
LINE
5
148
100
AcDbEntity
8
0
100
AcDbLine
10
-42.5
20
77.000000000000014
30
0
11
-2.0000000000000022
21
77
31
0
0
ARC
5
149
100
AcDbEntity
8
0
100
AcDbCircle
10
-42.500000000000064
20
91.999999999999957
30
0
40
14.999999999999938
210
0
220
0
230
1
100
AcDbArc
50
180
51
270.00000000000023
0
ARC
5
150
100
AcDbEntity
8
0
100
AcDbCircle
10
-2.0000000000000058
20
74.999999999999986
30
0
40
2.0000000000000058
210
0
220
-0
230
1
100
AcDbArc
50
0
51
89.999999999999901
0
ARC
5
151
100
AcDbEntity
8
0
100
AcDbCircle
10
-4.9999999999999947
20
4.9999999999999947
30
0
40
4.9999999999999947
210
0
220
0
230
1
100
AcDbArc
50
-90.000000000000057
51
0
0
ARC
5
152
100
AcDbEntity
8
0
100
AcDbCircle
10
-129.99999999999997
20
5.0000000000000107
30
0
40
5.0000000000000178
210
0
220
0
230
1
100
AcDbArc
50
180
51
269.99999999999972
0
ARC
5
153
100
AcDbEntity
8
0
100
AcDbCircle
10
-130
20
72
30
0
40
5
210
0
220
-0
230
1
100
AcDbArc
50
90
51
180
0
ENDSEC
0
SECTION
2
OBJECTS
0
DICTIONARY
5
C
100
AcDbDictionary
3
ACAD_GROUP
350
D
3
ACAD_MLINESTYLE
350
17
0
DICTIONARY
5
D
100
AcDbDictionary
0
DICTIONARY
5
1A
330
C
100
AcDbDictionary
0
DICTIONARY
5
17
100
AcDbDictionary
0
ENDSEC
0
EOF
